# xmcd
#
# Track frame offsets:
#	150
#	11414
#	24460
#	36372
#	48517
#	61655
#	74147
#	89284
#	100974
#	113628
#
# Disc length: 1670 seconds
#
# Revision: 3
# Processed by: cddbd v1.5.2PL0 Copyright (c) Steve Scherf et al.
# Submitted via: EasyCDDAExtractor 15.3.0.1
#
DISCID=7f06840a
DTITLE=Merle Haggard - Drinkin'
DYEAR=2001
DGENRE=Country
TTITLE0=Drink Up And Be Somebody
TTITLE1=Swinging Doors
TTITLE2=Little Ole Wine Drinker Me
TTITLE3=Some Of Us Never Learn
TTITLE4=I Can't Hold Myself In Line
TTITLE5=Wine Take Me Away
TTITLE6=I Threw Away The Rose
TTITLE7=Who'll Buy The Wine
TTITLE8=The Bottle Let Me Down
TTITLE9=No Reason  To Quit
EXTD=Capitol 7243-5-34452-2-5
EXTT0=
EXTT1=
EXTT2=
EXTT3=
EXTT4=
EXTT5=
EXTT6=
EXTT7=
EXTT8=
EXTT9=
PLAYORDER=
